<svg width="18" height="18" viewBox="0 0 18 18" fill="none" xmlns="http://www.w3.org/2000/svg">
<path d="M9 17.313C8.4195 16.7719 7.7634 16.2091 7.0695 15.6104H7.0605C4.61701 13.5105 1.84772 11.1343 0.624619 8.28717C0.222786 7.38074 0.0098341 6.39454 1.02654e-05 5.39459C-0.00267334 4.02255 0.520913 2.70726 1.45244 1.74602C2.38398 0.784773 3.64482 0.258704 4.95001 0.286708C6.01257 0.288472 7.05226 0.61123 7.9452 1.21653C8.33757 1.48419 8.69258 1.80796 9 2.17852C9.30914 1.80942 9.66424 1.48584 10.0557 1.21653C10.9483 0.611111 11.9877 0.288334 13.05 0.286708C14.3552 0.258704 15.616 0.784773 16.5476 1.74602C17.4791 2.70726 18.0027 4.02255 18 5.39459C17.9908 6.39613 17.7778 7.38402 17.3754 8.2919C16.1523 11.1391 13.3839 13.5142 10.9404 15.6104L10.9314 15.6179C10.2366 16.2129 9.5814 16.7757 9.0009 17.3206L9 17.313ZM4.95001 2.17852C4.11167 2.16749 3.30308 2.50471 2.70001 3.11686C2.11896 3.71672 1.79422 4.53859 1.79994 5.39459C1.81021 6.12341 1.96726 6.84169 2.26082 7.50207C2.83817 8.73052 3.61721 9.84229 4.56211 10.7863C5.45401 11.7322 6.48001 12.6478 7.3674 13.4178C7.6131 13.6306 7.8633 13.8453 8.1135 14.06L8.271 14.1953C8.5113 14.4015 8.7597 14.6153 9 14.8253L9.0117 14.8139L9.0171 14.8092H9.0225L9.0306 14.8026H9.0351H9.0396L9.0558 14.7884L9.0927 14.7572L9.099 14.7515L9.1089 14.7439H9.1143L9.1224 14.7363L9.72 14.2208L9.8766 14.0856C10.1295 13.869 10.3797 13.6542 10.6254 13.4414C11.5128 12.6714 12.5397 11.7567 13.4316 10.8061C14.3766 9.86263 15.1557 8.75115 15.7329 7.52288C16.0318 6.85677 16.191 6.13099 16.2 5.39459C16.2037 4.54124 15.8792 3.72251 15.3 3.12442C14.6981 2.50951 13.8893 2.16951 13.05 2.17852C12.0257 2.16937 11.0465 2.6206 10.359 3.4186L9 5.06447L7.641 3.4186C6.95346 2.6206 5.97428 2.16937 4.95001 2.17852Z" fill="#3B82F6"/>
</svg>
