<svg width="20" height="18" viewBox="0 0 20 18" fill="none" xmlns="http://www.w3.org/2000/svg">
<path d="M10 17.992C9.355 17.4203 8.626 16.8256 7.85501 16.1929H7.84501C5.13001 13.974 2.05302 11.4633 0.694021 8.45484C0.24754 7.49705 0.0109268 6.45498 1.14059e-05 5.39839C-0.00297038 3.94861 0.578792 2.55881 1.61383 1.54311C2.64886 0.527406 4.0498 -0.0284668 5.50001 0.00112371C6.68064 0.00298757 7.83584 0.344031 8.828 0.983626C9.26397 1.26645 9.65842 1.60856 10 2.00011C10.3435 1.6101 10.738 1.26819 11.173 0.983626C12.1647 0.343905 13.3197 0.00284139 14.5 0.00112371C15.9502 -0.0284668 17.3511 0.527406 18.3862 1.54311C19.4212 2.55881 20.003 3.94861 20 5.39839C19.9898 6.45667 19.7532 7.50052 19.306 8.45984C17.947 11.4683 14.871 13.978 12.156 16.1929L12.146 16.2009C11.374 16.8296 10.646 17.4243 10.001 18L10 17.992ZM5.50001 2.00011C4.56852 1.98846 3.67009 2.34478 3.00002 2.99161C2.3544 3.62545 1.99357 4.49389 1.99993 5.39839C2.01134 6.1685 2.18584 6.92747 2.51202 7.62526C3.15353 8.92331 4.01912 10.0981 5.06901 11.0955C6.06001 12.095 7.20001 13.0625 8.186 13.8761C8.459 14.101 8.737 14.3279 9.015 14.5547L9.19 14.6977C9.457 14.9156 9.733 15.1414 10 15.3633L10.013 15.3513L10.019 15.3463H10.025L10.034 15.3394H10.039H10.044L10.062 15.3244L10.103 15.2914L10.11 15.2854L10.121 15.2774H10.127L10.136 15.2694L10.8 14.7247L10.974 14.5817C11.255 14.3529 11.533 14.126 11.806 13.9011C12.792 13.0875 13.933 12.121 14.924 11.1165C15.974 10.1196 16.8396 8.9451 17.481 7.64725C17.8131 6.94341 17.99 6.1765 18 5.39839C18.0041 4.49668 17.6435 3.63158 17 2.9996C16.3312 2.34985 15.4326 1.9906 14.5 2.00011C13.3619 1.99044 12.2739 2.46724 11.51 3.31045L10 5.04957L8.49 3.31045C7.72607 2.46724 6.63808 1.99044 5.50001 2.00011Z" fill="#565656"/>
</svg>
