<svg width="20" height="20" viewBox="0 0 20 20" fill="none" xmlns="http://www.w3.org/2000/svg">
<path d="M11 20H9V17H11V20ZM16.364 17.778L14.243 15.657L15.657 14.243L17.779 16.365L16.366 17.778H16.364ZM3.636 17.778L2.221 16.364L4.341 14.242L5.756 15.656L3.636 17.777V17.778ZM10 15.007C7.23497 15.0059 4.99426 12.7637 4.995 9.99867C4.99574 7.23364 7.23764 4.99263 10.0027 4.993C12.7677 4.99337 15.009 7.23497 15.009 10C15.0062 12.7649 12.7649 15.0053 10 15.007ZM10 6.993C8.33954 6.9941 6.99426 8.34087 6.995 10.0013C6.99574 11.6618 8.34221 13.0074 10.0027 13.007C11.6631 13.0066 13.009 11.6605 13.009 10C13.0073 8.33918 11.6608 6.99355 10 6.993ZM20 11H17V9H20V11ZM3 11H0V9H3V11ZM15.656 5.758L14.243 4.343L16.364 2.221L17.779 3.636L15.657 5.757L15.656 5.758ZM4.343 5.758L2.223 3.637L3.638 2.223L5.758 4.345L4.344 5.757L4.343 5.758ZM11 3H9V0H11V3Z" fill="white"/>
</svg>
