<svg width="12" height="20" viewBox="0 0 12 20" fill="none" xmlns="http://www.w3.org/2000/svg">
<path d="M7.0387 20H4.02211V17H7.0387V20ZM7.0387 15H4.02211V14.993C4.02211 13.343 4.02211 11.918 4.69783 10.92C5.22353 10.2574 5.87765 9.70654 6.62141 9.30003C6.95725 9.08603 7.27399 8.88303 7.54046 8.67203C8.70826 7.7731 9.23333 6.27397 8.87982 4.84804C8.32046 3.5182 6.89719 2.76363 5.4752 3.04302C4.05321 3.32241 3.02541 4.55856 3.01659 6.00004H0C0 2.68634 2.70114 2.71981e-05 6.03317 2.71981e-05C8.35118 -0.00687127 10.471 1.299 11.4972 3.36605C12.419 5.47217 12.0546 7.91645 10.5581 9.66603C10.103 10.1675 9.59233 10.616 9.03568 11.003C8.54859 11.3372 8.10422 11.729 7.7124 12.17C7.15865 13.0046 6.91997 14.0071 7.0387 15Z" fill="white"/>
</svg>
