<svg width="18" height="18" viewBox="0 0 18 18" fill="none" xmlns="http://www.w3.org/2000/svg">
<path d="M9 17.2781C8.4195 16.7381 7.7634 16.1765 7.0695 15.579H7.0605C4.61701 13.4834 1.84772 11.1121 0.624619 8.27077C0.222786 7.36619 0.0098341 6.38201 1.02654e-05 5.38412C-0.00267334 4.01489 0.520913 2.7023 1.45244 1.74303C2.38398 0.78375 3.64482 0.258759 4.95001 0.286706C6.01257 0.288466 7.05226 0.610563 7.9452 1.21462C8.33757 1.48174 8.69258 1.80484 9 2.17464C9.30914 1.8063 9.66424 1.48338 10.0557 1.21462C10.9483 0.610443 11.9877 0.288328 13.05 0.286706C14.3552 0.258759 15.616 0.78375 16.5476 1.74303C17.4791 2.7023 18.0027 4.01489 18 5.38412C17.9908 6.38361 17.7778 7.36947 17.3754 8.27549C16.1523 11.1168 13.3839 13.4871 10.9404 15.579L10.9314 15.5865C10.2366 16.1803 9.5814 16.7419 9.0009 17.2856L9 17.2781ZM4.95001 2.17464C4.11167 2.16363 3.30308 2.50016 2.70001 3.11105C2.11896 3.70968 1.79422 4.52988 1.79994 5.38412C1.81021 6.11145 1.96726 6.82825 2.26082 7.48728C2.83817 8.71321 3.61721 9.8227 4.56211 10.7647C5.45401 11.7087 6.48001 12.6225 7.3674 13.3908C7.6131 13.6032 7.8633 13.8175 8.1135 14.0318L8.271 14.1668C8.5113 14.3726 8.7597 14.5859 9 14.7955L9.0117 14.7841L9.0171 14.7794H9.0225L9.0306 14.7728H9.0351H9.0396L9.0558 14.7586L9.0927 14.7275L9.099 14.7218L9.1089 14.7143H9.1143L9.1224 14.7067L9.72 14.1923L9.8766 14.0573C10.1295 13.8411 10.3797 13.6268 10.6254 13.4144C11.5128 12.6461 12.5397 11.7332 13.4316 10.7846C14.3766 9.843 15.1557 8.7338 15.7329 7.50805C16.0318 6.84331 16.191 6.11901 16.2 5.38412C16.2037 4.53251 15.8792 3.71547 15.3 3.1186C14.6981 2.50495 13.8893 2.16565 13.05 2.17464C12.0257 2.16551 11.0465 2.61582 10.359 3.41218L9 5.05468L7.641 3.41218C6.95346 2.61582 5.97428 2.16551 4.95001 2.17464Z" fill="#3B82F6"/>
</svg>
