<svg width="16" height="16" viewBox="0 0 16 16" fill="none" xmlns="http://www.w3.org/2000/svg">
<path d="M14.7583 13.575L11.925 10.75C12.8392 9.58538 13.3352 8.14722 13.3333 6.66667C13.3333 5.34813 12.9423 4.0592 12.2098 2.96287C11.4773 1.86654 10.4361 1.01206 9.21789 0.507473C7.99972 0.00288854 6.65927 -0.129134 5.36607 0.128101C4.07286 0.385336 2.88497 1.02027 1.95262 1.95262C1.02027 2.88497 0.385336 4.07286 0.128101 5.36607C-0.129134 6.65928 0.00288854 7.99972 0.507473 9.21789C1.01206 10.4361 1.86654 11.4773 2.96287 12.2098C4.0592 12.9423 5.34813 13.3333 6.66667 13.3333C8.14722 13.3352 9.58538 12.8392 10.75 11.925L13.575 14.7583C13.6525 14.8364 13.7446 14.8984 13.8462 14.9407C13.9477 14.9831 14.0567 15.0048 14.1667 15.0048C14.2767 15.0048 14.3856 14.9831 14.4872 14.9407C14.5887 14.8984 14.6809 14.8364 14.7583 14.7583C14.8364 14.6809 14.8984 14.5887 14.9407 14.4872C14.9831 14.3856 15.0048 14.2767 15.0048 14.1667C15.0048 14.0567 14.9831 13.9477 14.9407 13.8462C14.8984 13.7446 14.8364 13.6525 14.7583 13.575ZM1.66667 6.66667C1.66667 5.67776 1.95991 4.71106 2.50932 3.88882C3.05873 3.06657 3.83962 2.42571 4.75325 2.04727C5.66688 1.66883 6.67222 1.56982 7.64212 1.76274C8.61203 1.95567 9.50294 2.43187 10.2022 3.13114C10.9015 3.8304 11.3777 4.72131 11.5706 5.69122C11.7635 6.66112 11.6645 7.66646 11.2861 8.58009C10.9076 9.49372 10.2668 10.2746 9.44452 10.824C8.62228 11.3734 7.65558 11.6667 6.66667 11.6667C5.34059 11.6667 4.06882 11.1399 3.13114 10.2022C2.19345 9.26452 1.66667 7.99275 1.66667 6.66667Z" fill="white"/>
</svg>
