<svg width="20" height="20" viewBox="0 0 20 20" fill="none" xmlns="http://www.w3.org/2000/svg">
<path d="M11.8766 20H8.12478C7.64046 20 7.2214 19.673 7.11776 19.214L6.69825 17.33C6.13862 17.0921 5.60797 16.7946 5.11608 16.443L3.22263 17.028C2.76087 17.1709 2.25889 16.9823 2.01668 16.575L0.136628 13.424C-0.102926 13.0165 -0.0203943 12.5025 0.335559 12.185L1.80435 10.885C1.73755 10.2961 1.73755 9.70189 1.80435 9.113L0.335559 7.816C-0.0209186 7.49837 -0.103483 6.98372 0.136628 6.576L2.01256 3.423C2.25476 3.0157 2.75674 2.82714 3.21851 2.97L5.11196 3.555C5.36352 3.37416 5.6254 3.20722 5.89634 3.055C6.15644 2.91269 6.42411 2.78385 6.69825 2.669L7.11879 0.787C7.22193 0.327969 7.64053 0.000494393 8.12478 0H11.8766C12.3609 0.000494393 12.7795 0.327969 12.8826 0.787L13.3073 2.67C13.5967 2.79352 13.8786 2.93308 14.1515 3.088C14.406 3.23081 14.652 3.38739 14.8884 3.557L16.7829 2.972C17.2444 2.82967 17.7457 3.01816 17.9878 3.425L19.8638 6.578C20.1033 6.98548 20.0208 7.49951 19.6648 7.817L18.196 9.117C18.2628 9.70589 18.2628 10.3001 18.196 10.889L19.6648 12.189C20.0208 12.5065 20.1033 13.0205 19.8638 13.428L17.9878 16.581C17.7457 16.9878 17.2444 17.1763 16.7829 17.034L14.8884 16.449C14.6487 16.6203 14.3996 16.7789 14.1422 16.924C13.8719 17.0759 13.5932 17.2131 13.3073 17.335L12.8826 19.214C12.7791 19.6726 12.3606 19.9996 11.8766 20ZM5.48611 14.229L6.33131 14.829C6.52184 14.9652 6.72043 15.0904 6.92604 15.204C7.11951 15.3127 7.31872 15.4115 7.52283 15.5L8.4845 15.909L8.95555 18H11.0479L11.519 15.908L12.4806 15.499C12.9005 15.3194 13.2989 15.0961 13.6691 14.833L14.5153 14.233L16.619 14.883L17.6652 13.125L16.0336 11.682L16.149 10.67C16.1997 10.2274 16.1997 9.78064 16.149 9.338L16.0336 8.326L17.6662 6.88L16.619 5.121L14.5153 5.771L13.6691 5.171C13.2988 4.90671 12.9004 4.68175 12.4806 4.5L11.519 4.091L11.0479 2H8.95555L8.48244 4.092L7.52283 4.5C7.31855 4.58704 7.11932 4.68486 6.92604 4.793C6.72169 4.90633 6.52415 5.03086 6.3344 5.166L5.48818 5.766L3.38549 5.116L2.33724 6.88L3.96888 8.321L3.85344 9.334C3.80273 9.77664 3.80273 10.2234 3.85344 10.666L3.96888 11.678L2.33724 13.121L3.38343 14.879L5.48611 14.229ZM9.99658 14C7.71956 14 5.87367 12.2091 5.87367 10C5.87367 7.79086 7.71956 6 9.99658 6C12.2736 6 14.1195 7.79086 14.1195 10C14.1167 12.208 12.2724 13.9972 9.99658 14ZM9.99658 8C8.87041 8.00111 7.95356 8.87885 7.93743 9.97134C7.92129 11.0638 8.81183 11.9667 9.93751 11.9991C11.0632 12.0315 12.0074 11.1815 12.058 10.09V10.49V10C12.058 8.89543 11.1351 8 9.99658 8Z" fill="white"/>
</svg>
